<svg width="512" height="512" viewBox="0 0 512 512" fill="none" xmlns="http://www.w3.org/2000/svg">
<rect width="512" height="512"/>
<path fill-rule="evenodd" clip-rule="evenodd" d="M268.732 135.186L318.051 184.505L260.118 242.438L115.612 97.9329L139.738 73.8068C153.89 64.7667 169.164 57.3305 185.302 51.756L221.866 88.3197L249.191 60.9943L229.733 41.5368C238.239 40.5278 246.879 39.9984 255.646 40C272.636 40.003 289.164 41.9665 305.024 45.6887C302.442 52.3376 298.474 58.577 293.108 63.9432L285.589 71.4626L285.611 71.4852C298.401 59.422 314.867 53.4747 331.287 53.6605C355.246 62.6425 377.201 75.7857 396.243 92.1828L403.308 99.2479L345.376 157.18L296.057 107.86L268.732 135.186Z" fill="#232FAF"/>
<path fill-rule="evenodd" clip-rule="evenodd" d="M427.872 294.326L459.551 326.005C450.151 353.215 435.449 377.959 416.691 399.011L274.752 257.073L332.686 199.14L381.006 247.46L408.331 220.134L359.511 171.315L417.443 113.383L419.113 115.053C440.64 140.05 456.539 170.04 464.824 203.034C462.288 210.362 458.094 217.238 452.248 223.083L444.729 230.603L444.751 230.625C451.564 224.199 459.417 219.504 467.754 216.55C470.084 229.236 471.303 242.307 471.296 255.65C471.297 264.417 470.779 273.068 469.759 281.562L455.197 267L427.872 294.326Z" fill="#6310BB"/>
<path fill-rule="evenodd" clip-rule="evenodd" d="M71.4626 285.598L63.9432 293.118C58.577 298.484 52.3376 302.452 45.6887 305.034C41.9665 289.174 40.003 272.645 40 255.656C39.9984 246.888 40.5278 238.249 41.5368 229.743L60.9943 249.201L88.3197 221.875L51.756 185.312C57.3305 169.173 64.7667 153.9 73.8068 139.748L97.9329 115.622L242.438 260.127L184.505 318.061L135.186 268.741L107.86 296.067L157.18 345.386L99.2479 403.318L92.1828 396.253C75.7857 377.211 62.6425 355.256 53.6605 331.297C53.4747 314.877 59.422 298.411 71.4852 285.621L71.4626 285.598Z" fill="#6310BB"/>
<path fill-rule="evenodd" clip-rule="evenodd" d="M230.603 444.738L223.083 452.258C217.238 458.104 210.362 462.298 203.034 464.833C170.04 456.549 140.05 440.65 115.053 419.123L113.383 417.453L171.314 359.521L220.134 408.341L247.46 381.015L199.14 332.695L257.073 274.762L399.011 416.701C377.959 435.459 353.215 450.161 326.005 459.561L294.326 427.881L267 455.207L281.562 469.769C273.068 470.789 264.417 471.307 255.65 471.305C242.307 471.313 229.236 470.094 216.55 467.764C219.503 459.427 224.199 451.573 230.625 444.761L230.603 444.738Z" fill="#232FAF"/>
</svg>
